<svg xmlns="http://www.w3.org/2000/svg" xmlns:xlink="http://www.w3.org/1999/xlink" width="500" zoomAndPan="magnify" viewBox="0 0 375 374.999991" height="500" preserveAspectRatio="xMidYMid meet" version="1.0"><defs><g/></defs><g fill="#000000" fill-opacity="1"><g transform="translate(30.995796, 43.967913)"><g><path d="M 16.90625 -10 L 16.90625 -14.3125 C 16.90625 -17.59375 16.726562 -19.988281 16.375 -21.5 C 16.019531 -23.007812 15.195312 -23.765625 13.90625 -23.765625 C 13.164062 -23.765625 12.566406 -23.550781 12.109375 -23.125 C 11.648438 -22.695312 11.320312 -21.992188 11.125 -21.015625 C 10.8125 -19.492188 10.65625 -17.175781 10.65625 -14.0625 L 10.65625 -10.109375 C 10.65625 -6.410156 10.765625 -4.1875 10.984375 -3.4375 C 11.210938 -2.695312 11.441406 -2.09375 11.671875 -1.625 C 12.046875 -0.8125 12.773438 -0.40625 13.859375 -0.40625 C 15.179688 -0.40625 16.046875 -1.164062 16.453125 -2.6875 C 16.753906 -3.769531 16.90625 -6.207031 16.90625 -10 Z M 13.75 0.5 C 9.519531 0.5 6.320312 -0.578125 4.15625 -2.734375 C 1.988281 -4.898438 0.90625 -8.003906 0.90625 -12.046875 C 0.90625 -16.097656 2.066406 -19.210938 4.390625 -21.390625 C 6.710938 -23.578125 9.96875 -24.671875 14.15625 -24.671875 C 18.351562 -24.671875 21.484375 -23.660156 23.546875 -21.640625 C 25.617188 -19.628906 26.65625 -16.5625 26.65625 -12.4375 C 26.65625 -3.8125 22.351562 0.5 13.75 0.5 Z M 13.75 0.5 "/></g></g></g><g fill="#000000" fill-opacity="1"><g transform="translate(58.561533, 43.967913)"><g><path d="M 1.265625 -35.53125 L 16.75 -35.53125 L 16.75 -34.578125 L 13.953125 -34.578125 L 13.953125 -18.53125 L 14.359375 -18.625 L 28.6875 -34.578125 L 24.671875 -34.578125 L 24.671875 -35.53125 L 33.5625 -35.53125 L 33.5625 -34.578125 L 30.515625 -34.578125 L 21.78125 -24.828125 L 33.96875 -0.96875 L 36.703125 -0.96875 L 36.703125 0 L 20.40625 0 L 20.40625 -0.96875 L 22.796875 -0.96875 L 14.421875 -17.15625 L 13.953125 -17.0625 L 13.953125 -0.96875 L 16.75 -0.96875 L 16.75 0 L 1.265625 0 L 1.265625 -0.96875 L 4.0625 -0.96875 L 4.0625 -34.578125 L 1.265625 -34.578125 Z M 1.265625 -35.53125 "/></g></g></g><g fill="#000000" fill-opacity="1"><g transform="translate(95.835637, 93.017711)"><g><path d="M 2.609375 -87.1875 L 47.453125 -87.1875 L 47.453125 -84.453125 L 34.25 -84.453125 L 34.25 -2.734375 L 38.734375 -2.734375 C 45.796875 -2.734375 51.421875 -4.890625 55.609375 -9.203125 C 59.804688 -13.523438 64.066406 -20.171875 68.390625 -29.140625 L 71 -29.140625 L 68.640625 0 L 2.609375 0 L 2.609375 -2.734375 L 9.96875 -2.734375 L 9.96875 -84.453125 L 2.609375 -84.453125 Z M 2.609375 -87.1875 "/></g></g></g><g fill="#000000" fill-opacity="1"><g transform="translate(170.07254, 93.017711)"><g><path d="M 62.40625 -38.484375 L 62.40625 -47.703125 C 62.40625 -62.898438 61.65625 -72.492188 60.15625 -76.484375 C 58.5 -81.046875 56.132812 -83.867188 53.0625 -84.953125 C 51.320312 -85.617188 49.203125 -85.953125 46.703125 -85.953125 C 44.210938 -85.953125 42.078125 -85.617188 40.296875 -84.953125 C 38.515625 -84.285156 37.039062 -83.117188 35.875 -81.453125 C 34.707031 -79.796875 33.769531 -78.050781 33.0625 -76.21875 C 32.363281 -74.394531 31.804688 -71.828125 31.390625 -68.515625 C 30.890625 -63.691406 30.640625 -56.585938 30.640625 -47.203125 L 30.640625 -38.234375 C 30.640625 -28.109375 31.035156 -20.90625 31.828125 -16.625 C 32.617188 -12.351562 33.59375 -9.300781 34.75 -7.46875 C 37.320312 -3.40625 41.3125 -1.375 46.71875 -1.375 C 53.269531 -1.375 57.519531 -4.132812 59.46875 -9.65625 C 61.425781 -15.175781 62.40625 -24.785156 62.40625 -38.484375 Z M 46.453125 1.25 C 32.585938 1.25 22.226562 -2.503906 15.375 -10.015625 C 8.53125 -17.535156 5.109375 -28.414062 5.109375 -42.65625 C 5.109375 -56.90625 8.78125 -68.117188 16.125 -76.296875 C 23.476562 -84.472656 33.878906 -88.5625 47.328125 -88.5625 C 60.785156 -88.5625 70.9375 -84.675781 77.78125 -76.90625 C 84.632812 -69.144531 88.0625 -58.125 88.0625 -43.84375 C 88.0625 -29.5625 84.59375 -18.472656 77.65625 -10.578125 C 70.726562 -2.691406 60.328125 1.25 46.453125 1.25 Z M 46.453125 1.25 "/></g></g></g><g fill="#000000" fill-opacity="1"><g transform="translate(97.47139, 184.956149)"><g><path d="M 49.828125 -86.078125 C 36.953125 -86.078125 30.515625 -73.660156 30.515625 -48.828125 L 30.515625 -38.984375 C 30.515625 -27.191406 32.21875 -17.953125 35.625 -11.265625 C 39.03125 -4.585938 44.054688 -1.25 50.703125 -1.25 C 59.835938 -1.25 68.222656 -10.132812 75.859375 -27.90625 L 78.09375 -27.90625 L 77.234375 -0.125 L 75.859375 -0.125 C 75.359375 -1.039062 74.898438 -1.679688 74.484375 -2.046875 C 74.066406 -2.421875 73.460938 -2.609375 72.671875 -2.609375 C 71.890625 -2.609375 68.878906 -1.960938 63.640625 -0.671875 C 58.410156 0.609375 53.097656 1.25 47.703125 1.25 C 34.171875 1.25 23.6875 -2.398438 16.25 -9.703125 C 8.820312 -17.015625 5.109375 -28 5.109375 -42.65625 C 5.109375 -57.3125 8.988281 -68.625 16.75 -76.59375 C 24.519531 -84.570312 34.960938 -88.5625 48.078125 -88.5625 C 53.140625 -88.5625 58.097656 -87.914062 62.953125 -86.625 C 67.816406 -85.34375 70.664062 -84.703125 71.5 -84.703125 C 72.332031 -84.703125 72.953125 -84.890625 73.359375 -85.265625 C 73.773438 -85.640625 74.234375 -86.28125 74.734375 -87.1875 L 76.109375 -87.1875 L 77.109375 -60.15625 L 74.859375 -60.15625 C 71.117188 -68.550781 67.273438 -74.96875 63.328125 -79.40625 C 59.390625 -83.851562 54.890625 -86.078125 49.828125 -86.078125 Z M 49.828125 -86.078125 "/></g></g></g><g fill="#000000" fill-opacity="1"><g transform="translate(183.4168, 184.956149)"><g><path d="M 53.8125 -2.359375 L 44.71875 -29.265625 L 20.046875 -29.265625 L 10.46875 -2.359375 L 19.8125 -2.359375 L 19.8125 0 L 0.75 0 L 0.75 -2.359375 L 6.609375 -2.359375 L 38.359375 -87.9375 L 48.578125 -87.9375 L 79.96875 -2.359375 L 85.703125 -2.359375 L 85.703125 0 L 44.96875 0 L 44.96875 -2.359375 Z M 32.890625 -64.640625 L 21.171875 -32.015625 L 43.71875 -32.015625 Z M 32.890625 -64.640625 "/></g></g></g><g fill="#000000" fill-opacity="1"><g transform="translate(110.868616, 277.125435)"><g><path d="M 79.21875 -87.1875 L 80.46875 -55.921875 L 78.09375 -55.921875 C 74.445312 -66.972656 71.210938 -74.507812 68.390625 -78.53125 C 65.566406 -82.5625 61.492188 -84.578125 56.171875 -84.578125 L 54.6875 -84.578125 L 54.6875 -2.609375 L 65.265625 -2.609375 L 65.265625 0 L 19.8125 0 L 19.8125 -2.609375 L 30.390625 -2.609375 L 30.390625 -84.578125 L 28.78125 -84.578125 C 23.457031 -84.578125 19.34375 -82.476562 16.4375 -78.28125 C 13.53125 -74.09375 10.332031 -66.640625 6.84375 -55.921875 L 4.484375 -55.921875 L 5.734375 -87.1875 Z M 79.21875 -87.1875 "/></g></g></g><g fill="#000000" fill-opacity="1"><g transform="translate(195.942112, 277.125435)"><g><path d="M 3.109375 -87.1875 L 41.109375 -87.1875 L 41.109375 -84.828125 L 34.25 -84.828125 L 34.25 -2.359375 L 41.109375 -2.359375 L 41.109375 0 L 3.109375 0 L 3.109375 -2.359375 L 9.96875 -2.359375 L 9.96875 -84.828125 L 3.109375 -84.828125 Z M 3.109375 -87.1875 "/></g></g></g><g fill="#000000" fill-opacity="1"><g transform="translate(103.911266, 367.631328)"><g><path d="M 62.40625 -38.484375 L 62.40625 -47.703125 C 62.40625 -62.898438 61.65625 -72.492188 60.15625 -76.484375 C 58.5 -81.046875 56.132812 -83.867188 53.0625 -84.953125 C 51.320312 -85.617188 49.203125 -85.953125 46.703125 -85.953125 C 44.210938 -85.953125 42.078125 -85.617188 40.296875 -84.953125 C 38.515625 -84.285156 37.039062 -83.117188 35.875 -81.453125 C 34.707031 -79.796875 33.769531 -78.050781 33.0625 -76.21875 C 32.363281 -74.394531 31.804688 -71.828125 31.390625 -68.515625 C 30.890625 -63.691406 30.640625 -56.585938 30.640625 -47.203125 L 30.640625 -38.234375 C 30.640625 -28.109375 31.035156 -20.90625 31.828125 -16.625 C 32.617188 -12.351562 33.59375 -9.300781 34.75 -7.46875 C 37.320312 -3.40625 41.3125 -1.375 46.71875 -1.375 C 53.269531 -1.375 57.519531 -4.132812 59.46875 -9.65625 C 61.425781 -15.175781 62.40625 -24.785156 62.40625 -38.484375 Z M 46.453125 1.25 C 32.585938 1.25 22.226562 -2.503906 15.375 -10.015625 C 8.53125 -17.535156 5.109375 -28.414062 5.109375 -42.65625 C 5.109375 -56.90625 8.78125 -68.117188 16.125 -76.296875 C 23.476562 -84.472656 33.878906 -88.5625 47.328125 -88.5625 C 60.785156 -88.5625 70.9375 -84.675781 77.78125 -76.90625 C 84.632812 -69.144531 88.0625 -58.125 88.0625 -43.84375 C 88.0625 -29.5625 84.59375 -18.472656 77.65625 -10.578125 C 70.726562 -2.691406 60.328125 1.25 46.453125 1.25 Z M 46.453125 1.25 "/></g></g></g><g fill="#000000" fill-opacity="1"><g transform="translate(197.081068, 367.631328)"><g><path d="M 73.484375 -84.828125 L 73.484375 0 L 56.046875 0 L 13.328125 -80.59375 L 13.328125 -2.359375 L 20.171875 -2.359375 L 20.171875 0 L 3.109375 0 L 3.109375 -2.359375 L 9.96875 -2.359375 L 9.96875 -84.828125 L 3.109375 -84.828125 L 3.109375 -87.1875 L 37.5 -87.1875 L 70.125 -24.65625 L 70.125 -84.828125 L 63.28125 -84.828125 L 63.28125 -87.1875 L 80.34375 -87.1875 L 80.34375 -84.828125 Z M 73.484375 -84.828125 "/></g></g></g></svg>